<svg width="12" height="16" viewBox="0 0 12 16" fill="none" xmlns="http://www.w3.org/2000/svg">
<g clip-path="url(#clip0_76_251)">
<path d="M10.8141 8.10563C10.2338 7.00145 9.27784 6.09092 8.10784 5.61279C5.38797 4.47045 2.44172 5.72475 1.19054 8.08733C0.796416 8.83197 0.570659 9.68636 0.573513 10.6108C0.583977 14.4484 4.53695 17.0605 8.09547 15.5791C10.0753 14.7764 11.4435 12.7368 11.426 10.6108C11.44 9.73556 11.218 8.8736 10.8141 8.10563ZM4.2444 14.7198C1.79215 13.7112 0.524367 11.1993 1.55708 8.76952C1.62588 8.60363 1.70325 8.44341 1.78886 8.2895C2.96901 8.64494 4.43643 8.85594 6.02656 8.85594C7.61669 8.85594 9.11645 8.64021 10.3029 8.27783C10.7009 8.98399 10.9247 9.78791 10.9212 10.6108C10.9396 14.0652 7.43861 16.0621 4.2444 14.7198Z" fill="#0A4A37"/>
<path d="M6.65142 2.40484C6.65142 3.73294 6.00015 4.80968 6.00015 4.80968C6.00015 4.80968 5.34888 3.73294 5.34888 2.40484C5.34888 1.07674 6.00015 0 6.00015 0C6.00015 0 6.65142 1.07674 6.65142 2.40484Z" fill="#0A4A37"/>
</g>
<defs>
<clipPath id="clip0_76_251">
<rect width="10.8531" height="16" fill="white" transform="translate(0.573486)"/>
</clipPath>
</defs>
</svg>
